<svg xmlns="http://www.w3.org/2000/svg" viewBox="0 0 373 53.96"><defs><style>.a{fill:#585a61}.b{fill:#589bd4}.c{fill:#146cb5}.d{fill:#72c168}</style></defs><title>intersys-logo</title><path class="a" d="M100.1 46.85V7.06h6.29v39.79h-6.29zM122.78 18.79v28.06h-6.29V6.96h4.94l22.78 28.73V7.06h6.34v39.79h-5.22zM189.89 12.56h-13.24v34.29h-6.29V12.56h-13.3v-5.6h32.83v5.6zM223.78 41.29v5.56h-27.32V6.96h26.82v5.6h-20.54v11.33h17.79v5.22h-17.79v12.18h21zM232.76 46.85V6.96h17.34a11.06 11.06 0 0 1 5 1.12 12.72 12.72 0 0 1 3.9 2.95 13.89 13.89 0 0 1 2.55 4.15 12.73 12.73 0 0 1 .93 4.74 13.29 13.29 0 0 1-.56 3.87 13.58 13.58 0 0 1-1.57 3.42 11.06 11.06 0 0 1-2.5 2.75 10.17 10.17 0 0 1-3.2 1.71l9.48 15.15H257l-8.75-13.86H239v13.89h-6.29zM239 27.43h11a5.07 5.07 0 0 0 2.44-.59 5.77 5.77 0 0 0 1.88-1.63 8.23 8.23 0 0 0 1.23-2.38 9 9 0 0 0 .45-2.86 7.73 7.73 0 0 0-.53-2.86 8.21 8.21 0 0 0-1.4-2.36 6.65 6.65 0 0 0-2-1.6 5.17 5.17 0 0 0-2.38-.59H239v14.87zM296.18 16.37a8.7 8.7 0 0 0-1.63-1.32 16.39 16.39 0 0 0-2.5-1.32 18.12 18.12 0 0 0-3.17-1 16.82 16.82 0 0 0-3.7-.39 9.13 9.13 0 0 0-5.61 1.46 4.86 4.86 0 0 0-1.91 4.1 4.22 4.22 0 0 0 .62 2.38 5.1 5.1 0 0 0 1.85 1.6 15.38 15.38 0 0 0 3.09 1.21q1.85.53 4.32 1.15 2.92.79 5.36 1.63a15.44 15.44 0 0 1 4.1 2.09 8.89 8.89 0 0 1 2.66 3.11 10 10 0 0 1 1 4.6 11.11 11.11 0 0 1-1.17 5.29 10 10 0 0 1-3.17 3.56 13.85 13.85 0 0 1-4.63 2 23.56 23.56 0 0 1-5.61.65 28.54 28.54 0 0 1-8.81-1.37 25.06 25.06 0 0 1-7.69-4l2.92-5.39a13.79 13.79 0 0 0 2.08 1.63 18.51 18.51 0 0 0 3.17 1.65 27.32 27.32 0 0 0 4 1.29 19.13 19.13 0 0 0 4.55.53 10.06 10.06 0 0 0 5.58-1.32 4.32 4.32 0 0 0 2-3.84 4.21 4.21 0 0 0-.73-2.53 6.21 6.21 0 0 0-2.15-1.7 17.63 17.63 0 0 0-3.42-1.35q-2-.59-4.6-1.26a47.34 47.34 0 0 1-5.19-1.65 13 13 0 0 1-3.67-2.1 8.23 8.23 0 0 1-2.22-2.89 9.59 9.59 0 0 1-.76-4 11.82 11.82 0 0 1 1.09-5.19 10.81 10.81 0 0 1 3-3.82 13.35 13.35 0 0 1 4.57-2.33 19.76 19.76 0 0 1 5.67-.79 21.1 21.1 0 0 1 7.55 1.29 24.84 24.84 0 0 1 6 3.2zM310.6 6.96l11.05 20 11.11-20h6.85L324.8 32.59v14.26h-6.34V32.48L303.7 6.96h6.9zM368.51 16.37a8.7 8.7 0 0 0-1.63-1.32 16.39 16.39 0 0 0-2.5-1.32 18.12 18.12 0 0 0-3.17-1 16.82 16.82 0 0 0-3.7-.39 9.13 9.13 0 0 0-5.61 1.46 4.86 4.86 0 0 0-1.91 4.1 4.22 4.22 0 0 0 .62 2.38 5.1 5.1 0 0 0 1.85 1.6 15.38 15.38 0 0 0 3.09 1.21q1.85.53 4.32 1.15 2.92.79 5.36 1.63a15.44 15.44 0 0 1 4.15 2.1 8.89 8.89 0 0 1 2.62 3.11 10 10 0 0 1 1 4.6 11.11 11.11 0 0 1-1.18 5.28 10 10 0 0 1-3.17 3.56 13.85 13.85 0 0 1-4.63 2 23.56 23.56 0 0 1-5.61.65 28.54 28.54 0 0 1-8.81-1.37 25.06 25.06 0 0 1-7.69-4l2.92-5.39a13.79 13.79 0 0 0 2.08 1.63 18.51 18.51 0 0 0 3.17 1.65 27.32 27.32 0 0 0 4 1.29 19.13 19.13 0 0 0 4.55.53 10.06 10.06 0 0 0 5.58-1.32 4.32 4.32 0 0 0 2-3.84 4.21 4.21 0 0 0-.73-2.53 6.21 6.21 0 0 0-2.13-1.77 17.63 17.63 0 0 0-3.42-1.35q-2-.59-4.6-1.26a47.34 47.34 0 0 1-5.19-1.65 13 13 0 0 1-3.67-2.1 8.23 8.23 0 0 1-2.22-2.89 9.59 9.59 0 0 1-.76-4 11.82 11.82 0 0 1 1.09-5.19 10.81 10.81 0 0 1 3-3.82 13.35 13.35 0 0 1 4.57-2.33 19.76 19.76 0 0 1 5.67-.79 21.1 21.1 0 0 1 7.55 1.29 24.84 24.84 0 0 1 6 3.2z"/><path class="b" d="M55.16 0H29.75l23.69 23.69 3.29 3.29h25.4v-.01L55.16 0z"/><path class="c" d="M56.73 26.98l-3.29 3.29-23.69 23.69h25.4l26.98-26.98h-25.4z"/><path class="d" d="M0 26.975L24.096 2.877l24.098 24.098-24.098 24.098z"/></svg>